<svg xmlns="http://www.w3.org/2000/svg" viewBox="0 0 672 672"><path d="M175 28h322a7 7 0 0 1 7 7v49H367.883l-3.947-28.946a7.007 7.007 0 0 0-8.8-5.8 7.166 7.166 0 0 0-5.042 7.938L353.754 84h-35.508l3.69-27.054a7 7 0 0 0-13.872-1.892L304.117 84H168V35a7 7 0 0 1 7-7Zm49 616h-56a7 7 0 0 1-7-7v-21h70v21a7 7 0 0 1-7 7Zm280 0h-56a7 7 0 0 1-7-7v-21h70v21a7 7 0 0 1-7 7Zm11.256-42h-80.993a10 10 0 0 1-9.848-8.262l-56.872-322.274a32.03 32.03 0 0 0-63.086 0l-56.872 322.274a10 10 0 0 1-9.848 8.262h-80.993a10 10 0 0 1-10-9.849l-6.117-403.768a163.674 163.674 0 0 1 17.189-75.365L165.326 98h136.882l-15.144 111.054a7 7 0 0 0 5.991 7.882 7.157 7.157 0 0 0 .954.065 7 7 0 0 0 6.927-6.055L316.337 98h39.326l15.4 112.946a7 7 0 0 0 6.928 6.054 7.157 7.157 0 0 0 .954-.065 7 7 0 0 0 5.991-7.882L369.792 98h136.882l7.509 15.018a163.674 163.674 0 0 1 17.189 75.365l-6.117 403.768a10 10 0 0 1-9.999 9.849Z"/></svg>