<svg xmlns="http://www.w3.org/2000/svg" viewBox="0 0 32 32"><path d="M15.5 12.006V6.81l-4.583.917a.519.519 0 0 1-.613-.598L11.196 2c-1.982.796-4.828 1.941-4.94 1.997a5.362 5.362 0 0 0-2.75 3.33L2.014 13.59c-.042.176.01.36.138.487l.608.608a5.485 5.485 0 0 0 3.907 1.62.519.519 0 0 0 .464-.287l1.072-2.146c.013.291.02.583.02.876v13.747a.52.52 0 0 0 .376.5c2.227.636 4.56.963 6.901 1.005V12.006zm12.988-4.701a5.357 5.357 0 0 0-2.743-3.308c-.112-.056-2.96-1.2-4.942-1.997l.87 4.99a.521.521 0 0 1-.488.746.535.535 0 0 1-.101-.01L16.5 6.81V30c2.34-.042 4.674-.37 6.902-1.006a.52.52 0 0 0 .376-.499V14.748c0-.293.006-.584.02-.876l1.072 2.146a.519.519 0 0 0 .463.287 5.486 5.486 0 0 0 3.908-1.62l.607-.608a.518.518 0 0 0 .138-.486l-1.498-6.286zM17.03 25.014a.503.503 0 0 1-.503-.5c0-.277.218-.5.493-.5h.01c.275 0 .497.223.497.5 0 .276-.222.5-.497.5zm0-5.003a.503.503 0 0 1-.503-.5c0-.277.218-.5.493-.5h.01c.275 0 .497.223.497.5 0 .276-.222.5-.497.5zm0-5.003a.503.503 0 0 1-.503-.5c0-.277.218-.5.493-.5h.01c.275 0 .497.223.497.5 0 .276-.222.5-.497.5zm0-5.003a.503.503 0 0 1-.503-.5c0-.277.218-.5.493-.5h.01c.275 0 .497.223.497.5 0 .276-.222.5-.497.5zM22 12.506h-3a.5.5 0 1 1 0-1h3a.5.5 0 1 1 0 1z"/><path d="m16.962 5.843 3.582.717-.716-4.117zM12.172 2.443l-.716 4.117 3.582-.717z"/></svg>